<?xml version="1.0" standalone="no"?><!DOCTYPE svg PUBLIC "-//W3C//DTD SVG 1.1//EN" "http://www.w3.org/Graphics/SVG/1.1/DTD/svg11.dtd"><svg t="1558517027683" class="icon" style="" viewBox="0 0 1024 1024" version="1.1" xmlns="http://www.w3.org/2000/svg" p-id="2935" xmlns:xlink="http://www.w3.org/1999/xlink" width="150" height="150"><defs><style type="text/css"></style></defs><path d="M461.344104 518.419097a59.392 59.392 0 1 0 115.604753-27.297982 59.392 59.392 0 1 0-115.604753 27.297982Z" p-id="2936"></path><path d="M510.464 788.992c6.656 6.656 17.408 6.656 24.064 0l54.272-56.32H455.68l54.784 56.32zM513.024 219.136l-54.272 56.32h132.608l-54.272-56.32c-6.144-6.656-16.896-6.656-24.064 0zM226.304 519.68l0.512 0.512 56.32 54.272v-133.12l-56.32 54.272c-6.656 7.168-7.168 17.408-0.512 24.064zM803.84 496.128l-56.32-54.272v132.608l56.32-54.272c6.656-6.144 7.168-16.896 0.512-23.552 0 0-0.512 0-0.512-0.512z" p-id="2937"></path><path d="M512 0C229.376 0 0 229.376 0 512s229.376 512 512 512c282.624-0.512 511.488-229.376 512-512C1024 229.376 794.624 0 512 0zM317.952 582.656c0 17.408-13.824 31.744-31.232 31.744h-0.512c-8.192 0-15.872-3.072-22.016-9.216l-61.952-60.416c-20.48-19.968-21.504-52.736-1.536-73.728l1.536-1.536L264.192 409.6c5.632-6.144 13.824-9.216 22.528-9.216 8.192 0 16.384 3.584 22.016 9.728 5.632 5.632 8.704 13.824 8.704 22.016v150.528z m302.08 169.472L560.128 814.08c-9.728 10.24-23.552 16.384-37.888 16.384-14.336 0-27.648-5.632-37.376-16.384L424.96 752.128c-12.288-12.8-11.776-32.768 1.024-44.544 6.144-5.632 13.824-8.704 22.016-8.704h149.504c17.408 0 31.232 13.824 31.744 31.232 0 8.192-3.072 15.872-9.216 22.016zM424.448 504.832c0-52.224 42.496-94.72 94.72-94.72s94.72 42.496 94.72 94.72-42.496 94.72-94.72 94.72-94.72-42.496-94.72-94.72z m198.656-203.264c-6.144 5.632-13.824 9.216-22.528 9.216H450.56c-17.408 0-31.744-14.336-31.744-31.744 0-8.192 3.584-16.384 9.728-22.016L486.912 194.56c20.992-20.48 54.272-20.48 74.752 0l61.44 62.464c12.288 12.288 12.288 32.256 0 44.544z m207.36 242.688l-1.536 1.536-61.952 59.904c-6.144 6.144-13.824 9.216-22.528 9.216-8.192 0-16.384-3.584-22.016-9.728-5.632-5.632-8.704-13.824-8.704-22.016V433.664c0-17.408 14.336-31.232 31.744-31.744 8.192 0 15.872 3.072 22.016 9.216l61.44 59.904c20.48 19.968 20.992 52.736 1.536 73.216z" p-id="2938"></path></svg>