<?xml version="1.0" standalone="no"?><!DOCTYPE svg PUBLIC "-//W3C//DTD SVG 1.1//EN" "http://www.w3.org/Graphics/SVG/1.1/DTD/svg11.dtd"><svg t="1558517068653" class="icon" style="" viewBox="0 0 1024 1024" version="1.1" xmlns="http://www.w3.org/2000/svg" p-id="3444" xmlns:xlink="http://www.w3.org/1999/xlink" width="150" height="150"><defs><style type="text/css"></style></defs><path d="M735 210.6l-45.4 181.2L438.6 148.8C530.6 127 627.2 133.6 735 210.6L735 210.6zM365.6 178.8c-120.6 55-174.6 135.4-201.6 226l352.6-80.2L365.6 178.8 365.6 178.8zM155 474l208.6-51.4-114 339C185 693 142.4 606 155 474L155 474zM307.8 807.2l63-202.8L604 869C512.2 890.8 415.6 884 307.8 807.2L307.8 807.2zM664.8 838.8l-139.4-144 341.2-82C839.4 703.6 785.2 783.8 664.8 838.8L664.8 838.8zM875.4 543.6c12.6-132-29.8-219-94.8-287.6l-92 342.6L875.4 543.6z" p-id="3445"></path></svg>