<?xml version="1.0" standalone="no"?><!DOCTYPE svg PUBLIC "-//W3C//DTD SVG 1.1//EN" "http://www.w3.org/Graphics/SVG/1.1/DTD/svg11.dtd"><svg t="1558518267769" class="icon" style="" viewBox="0 0 1024 1024" version="1.1" xmlns="http://www.w3.org/2000/svg" p-id="7718" xmlns:xlink="http://www.w3.org/1999/xlink" width="150" height="150"><defs><style type="text/css"></style></defs><path d="M1023.999488 512a509.84909 509.84909 0 0 1-146.431854 357.887642l-211.455788-366.591633-2.047998 1.023999L610.815901 409.600102h400.3836v-5.119994A532.479468 532.479468 0 0 1 1023.999488 512z m-443.903556-156.159844H470.016042L662.527849 22.528489A511.641088 511.641088 0 0 1 999.423513 358.400154h-417.791583z m-174.591826 0l-56.319943 99.327901-184.319816-318.975681A508.773891 508.773891 0 0 1 512 0.000512a525.721074 525.721074 0 0 1 98.815901 9.72799l-199.6798 346.111654h-5.631995zM317.952194 510.464002l58.879941 104.447895H10.240502A523.519476 523.519476 0 0 1 0.000512 512a509.54189 509.54189 0 0 1 127.487873-337.919662l192.511807 332.799667zM420.864091 665.599846h101.375899l-187.903812 325.631675a511.999488 511.999488 0 0 1-310.78369-325.119675h397.311603V665.599846z m166.399834-10.239989l-1.023999-0.512 53.759946-94.719905 199.167801 345.087655A507.596292 507.596292 0 0 1 512 1023.999488a493.721106 493.721106 0 0 1-126.975873-17.919982z m0 0" p-id="7719"></path></svg>