<?xml version="1.0" standalone="no"?><!DOCTYPE svg PUBLIC "-//W3C//DTD SVG 1.1//EN" "http://www.w3.org/Graphics/SVG/1.1/DTD/svg11.dtd"><svg t="1557049461924" class="icon" style="" viewBox="0 0 1024 1024" version="1.1" xmlns="http://www.w3.org/2000/svg" p-id="8324" xmlns:xlink="http://www.w3.org/1999/xlink" width="150" height="150"><defs><style type="text/css"></style></defs><path d="M512 1024c-282.510222 0-512-229.489778-512-512s229.489778-512 512-512 512 229.489778 512 512-229.489778 512-512 512z m0-61.781333c33.848889 0 61.781333-36.807111 61.781333-82.375111 0-45.624889-27.932444-82.432-61.781333-82.432-33.848889 0-61.781333 36.807111-61.781333 82.432 0 45.568 27.932444 82.375111 61.781333 82.375111zM61.781333 532.593778c0 33.848889 36.807111 61.781333 82.375111 61.781333 44.145778 0 82.432-27.932444 82.432-61.781333 0-33.848889-36.807111-61.781333-82.432-61.781334-45.568 0-82.375111 27.932444-82.375111 61.781334zM512 389.859556c-67.697778 0-122.140444 54.442667-122.140444 122.140444S444.302222 634.140444 512 634.140444 634.140444 579.697778 634.140444 512 579.697778 389.859556 512 389.859556z m0-328.078223c-33.848889 0-61.781333 36.807111-61.781333 82.375111 0 44.145778 27.932444 82.432 61.781333 82.432 33.848889 0 61.781333-36.807111 61.781333-82.432 0-45.568-27.932444-82.375111-61.781333-82.375111z m354.417778 410.851556c-42.154667 0-78.734222 26.737778-78.734222 59.050667 0 32.369778 35.157333 59.107556 78.791111 59.107555 43.576889 0 78.734222-26.737778 78.734222-59.107555s-35.157333-59.050667-78.734222-59.050667z" fill="#BFCBD9" p-id="8325"></path></svg>