<?xml version="1.0" standalone="no"?><!DOCTYPE svg PUBLIC "-//W3C//DTD SVG 1.1//EN" "http://www.w3.org/Graphics/SVG/1.1/DTD/svg11.dtd"><svg t="1558516396556" class="icon" style="" viewBox="0 0 1024 1024" version="1.1" xmlns="http://www.w3.org/2000/svg" p-id="2191" xmlns:xlink="http://www.w3.org/1999/xlink" width="150" height="150"><defs><style type="text/css"></style></defs><path d="M757.942881 834.978919a406.847571 406.847571 0 0 0-46.251283-21.147342 45.432676 45.432676 0 0 0 9.277544-6.139551 428.404216 428.404216 0 0 0 234.803712-378.605637 444.367049 444.367049 0 0 0-888.18836 0 427.722044 427.722044 0 0 0 234.326192 378.605637 48.161366 48.161366 0 0 0 9.345761 6.139551 438.43215 438.43215 0 0 0-46.387718 21.147342 168.291911 168.291911 0 0 0-102.939803 137.798808 106.146013 106.146013 0 0 0 181.594271 0c0-51.162924 75.380041-92.093263 167.950825-92.093263s167.950825 40.930339 167.950825 92.093263a106.077796 106.077796 0 0 0 181.526054 0 167.473304 167.473304 0 0 0-103.00802-137.798808z m-246.468859-112.558433a293.334097 293.334097 0 1 1 303.089162-293.334097 298.859693 298.859693 0 0 1-303.089162 293.334097z m0 0l8.254285-442.047663a170.54308 170.54308 0 1 1-170.543079 170.54308 170.54308 170.54308 0 0 1 170.543079-170.54308z" p-id="2192"></path></svg>