<?xml version="1.0" standalone="no"?><!DOCTYPE svg PUBLIC "-//W3C//DTD SVG 1.1//EN" "http://www.w3.org/Graphics/SVG/1.1/DTD/svg11.dtd"><svg t="1558518182827" class="icon" style="" viewBox="0 0 1024 1024" version="1.1" xmlns="http://www.w3.org/2000/svg" p-id="6447" xmlns:xlink="http://www.w3.org/1999/xlink" width="150" height="150"><defs><style type="text/css"></style></defs><path d="M971.646785 35.457236l-110.335862 118.399852A490.239387 490.239387 0 0 0 504.06337 0.00128C226.559717 0.00128 0 230.784992 0 512.00064c0 282.623647 226.559717 511.99936 504.06337 511.99936 209.151739 0 431.359461-116.863854 479.231401-355.199556 4.351995-22.143972-13.055984-33.919958-30.463962-33.919958h-103.167871c-21.759973 0-40.575949 20.607974-42.111947 35.455956 0 2.943996 0 4.479994-1.407999 4.479994-46.463942 139.007826-152.575809 173.055784-302.079622 173.055784-181.631773 0-329.727588-150.911811-329.727588-335.87158s148.095815-334.463582 329.727588-334.463582c91.391886 0 172.799784 38.399952 235.263706 100.607874L595.455256 423.168751c-1.279998 0-1.279998 1.535998-2.815997 1.535998-29.055964 32.511959-17.407978 54.783932 15.99998 54.783932H971.518786c31.99996 0 52.351935-22.271972 52.351934-54.783932V48.897219C1022.590722 20.737254 1003.646745 10.241267 971.646785 35.457236" p-id="6448"></path></svg>