<?xml version="1.0" standalone="no"?><!DOCTYPE svg PUBLIC "-//W3C//DTD SVG 1.1//EN" "http://www.w3.org/Graphics/SVG/1.1/DTD/svg11.dtd"><svg t="1558516854000" class="icon" style="" viewBox="0 0 1024 1024" version="1.1" xmlns="http://www.w3.org/2000/svg" p-id="2811" xmlns:xlink="http://www.w3.org/1999/xlink" width="150" height="150"><defs><style type="text/css"></style></defs><path d="M981.4 367H513c-25.5 0-42.6 17-42.6 42.6v298.1H65.9c-12.8 0-21.3-8.5-21.3-21.3v-511c0-12.8 8.5-21.3 21.3-21.3h681.3c12.8 0 21.3 8.5 21.3 21.3v127.7c0 12.8 8.5 21.3 21.3 21.3s21.3-8.5 21.3-21.3V175.3c0-34.1-29.8-63.9-63.9-63.9H65.9C31.8 111.5 2 141.3 2 175.3v511c0 34.1 29.8 63.9 63.9 63.9h319.4V878H257.5c-12.8 0-21.3 8.5-21.3 21.3s8.5 21.3 21.3 21.3h298.1c12.8 0 21.3-8.5 21.3-21.3s-8.5-21.3-21.3-21.3H427.8V750.2h42.6c0 25.5 17 42.6 42.6 42.6h212.9V878h-85.2c-12.8 0-21.3 8.5-21.3 21.3s8.5 21.3 21.3 21.3h212.9c12.8 0 21.3-8.5 21.3-21.3s-8.5-21.3-21.3-21.3h-85.2v-85.2h212.9c25.5 0 42.6-17 42.6-42.6V409.5c0.1-25.5-16.9-42.5-42.5-42.5z m0 383.2H513V409.5h468.4v340.7z" p-id="2812"></path></svg>