<?xml version="1.0" standalone="no"?><!DOCTYPE svg PUBLIC "-//W3C//DTD SVG 1.1//EN" "http://www.w3.org/Graphics/SVG/1.1/DTD/svg11.dtd"><svg t="1558516576204" class="icon" style="" viewBox="0 0 1024 1024" version="1.1" xmlns="http://www.w3.org/2000/svg" p-id="2687" xmlns:xlink="http://www.w3.org/1999/xlink" width="150" height="150"><defs><style type="text/css"></style></defs><path d="M170.666667 0H0v170.666667h170.666667V0zM455.111111 0H284.444444v170.666667h170.666667V0zM739.555556 0h-170.666667v170.666667h170.666667V0zM1024 0h-170.666667v170.666667h170.666667V0zM170.666667 284.444444H0v170.666667h170.666667V284.444444zM455.111111 284.444444H284.444444v170.666667h170.666667V284.444444zM739.555556 284.444444h-170.666667v170.666667h170.666667V284.444444zM1024 284.444444h-170.666667v170.666667h170.666667V284.444444zM170.666667 568.888889H0v170.666667h170.666667v-170.666667zM455.111111 568.888889H284.444444v170.666667h170.666667v-170.666667zM739.555556 568.888889h-170.666667v170.666667h170.666667v-170.666667zM1024 568.888889h-170.666667v170.666667h170.666667v-170.666667zM170.666667 853.333333H0v170.666667h170.666667v-170.666667zM455.111111 853.333333H284.444444v170.666667h170.666667v-170.666667zM739.555556 853.333333h-170.666667v170.666667h170.666667v-170.666667zM1024 853.333333h-170.666667v170.666667h170.666667v-170.666667z" p-id="2688"></path></svg>