<?xml version="1.0" standalone="no"?><!DOCTYPE svg PUBLIC "-//W3C//DTD SVG 1.1//EN" "http://www.w3.org/Graphics/SVG/1.1/DTD/svg11.dtd"><svg t="1558517065501" class="icon" style="" viewBox="0 0 1024 1024" version="1.1" xmlns="http://www.w3.org/2000/svg" p-id="3320" xmlns:xlink="http://www.w3.org/1999/xlink" width="150" height="150"><defs><style type="text/css"></style></defs><path d="M466.82359 75.550697c223.627197 0 404.948869 182.269253 404.948869 406.995481 0 85.766362-26.37981 165.311023-71.431889 230.947929l147.288554 147.133012c14.274098 14.274098 12.385075 39.650045-4.180206 56.242955l-15.128559 15.127536c-16.559141 16.470113-41.847084 18.421558-56.17951 4.14746L728.881051 792.916994c-70.671573 60.268642-162.138774 96.746438-262.057461 96.746438-223.689618 0-405.015384-182.269253-405.015384-407.116231C61.808206 257.81995 243.134994 75.550697 466.82359 75.550697L466.82359 75.550697zM470.877929 171.321924c-171.594123 0-310.736137 139.812279-310.736137 312.322262 0 172.508959 139.142014 312.322262 310.736137 312.322262 171.626869 0 310.769906-139.814326 310.769906-312.322262C781.647835 311.135226 642.504798 171.321924 470.877929 171.321924z" p-id="3321"></path></svg>